<?xml version="1.0" encoding="UTF-8" standalone="no"?>
<svg
   xmlns:dc="http://purl.org/dc/elements/1.1/"
   xmlns:cc="http://creativecommons.org/ns#"
   xmlns:rdf="http://www.w3.org/1999/02/22-rdf-syntax-ns#"
   xmlns:svg="http://www.w3.org/2000/svg"
   xmlns="http://www.w3.org/2000/svg"
   xmlns:xlink="http://www.w3.org/1999/xlink"
   xmlns:sodipodi="http://sodipodi.sourceforge.net/DTD/sodipodi-0.dtd"
   xmlns:inkscape="http://www.inkscape.org/namespaces/inkscape"
   sodipodi:docname="Совёнок.svg"
   inkscape:version="1.0beta2 (unknown)"
   id="svg8"
   version="1.1"
   viewBox="0 0 210 297"
   height="297mm"
   width="210mm">
  <defs
     id="defs2">
    <linearGradient
       id="linearGradient952"
       inkscape:collect="always">
      <stop
         id="stop948"
         offset="0"
         style="stop-color:#d6b4cf;stop-opacity:0" />
      <stop
         id="stop950"
         offset="1"
         style="stop-color:#000000;stop-opacity:0" />
    </linearGradient>
    <linearGradient
       id="linearGradient946"
       inkscape:collect="always">
      <stop
         id="stop942"
         offset="0"
         style="stop-color:#79c2cb;stop-opacity:0" />
      <stop
         id="stop944"
         offset="1"
         style="stop-color:#000000;stop-opacity:0" />
    </linearGradient>
    <linearGradient
       id="linearGradient940"
       inkscape:collect="always">
      <stop
         id="stop936"
         offset="0"
         style="stop-color:#909ad0;stop-opacity:1" />
      <stop
         id="stop938"
         offset="1"
         style="stop-color:#000000;stop-opacity:0;" />
    </linearGradient>
    <linearGradient
       inkscape:collect="always"
       id="linearGradient903">
      <stop
         style="stop-color:#e8bacc;stop-opacity:1"
         offset="0"
         id="stop913" />
      <stop
         style="stop-color:#000000;stop-opacity:0;"
         offset="1"
         id="stop915" />
    </linearGradient>
    <linearGradient
       gradientUnits="userSpaceOnUse"
       y2="260.70679"
       x2="92.903999"
       y1="260.70679"
       x1="9.9338512"
       id="linearGradient905"
       xlink:href="#linearGradient940"
       inkscape:collect="always" />
    <linearGradient
       gradientUnits="userSpaceOnUse"
       y2="260.70679"
       x2="85.083237"
       y1="260.70679"
       x1="17.754618"
       id="linearGradient907"
       xlink:href="#linearGradient946"
       inkscape:collect="always" />
    <linearGradient
       gradientUnits="userSpaceOnUse"
       y2="260.70679"
       x2="72.203285"
       y1="260.70679"
       x1="30.634563"
       id="linearGradient909"
       xlink:href="#linearGradient952"
       inkscape:collect="always" />
    <linearGradient
       gradientUnits="userSpaceOnUse"
       y2="260.70679"
       x2="60.953602"
       y1="260.70679"
       x1="41.884251"
       id="linearGradient911"
       xlink:href="#linearGradient903"
       inkscape:collect="always" />
    <filter
       height="1.0589017"
       y="-0.029450837"
       width="1.0150703"
       x="-0.0075351264"
       id="filter986"
       style="color-interpolation-filters:sRGB"
       inkscape:collect="always">
      <feGaussianBlur
         id="feGaussianBlur988"
         stdDeviation="0.25852601"
         inkscape:collect="always" />
    </filter>
    <filter
       height="1.0667263"
       y="-0.033363168"
       width="1.0185841"
       x="-0.009292038"
       id="filter990"
       style="color-interpolation-filters:sRGB"
       inkscape:collect="always">
      <feGaussianBlur
         id="feGaussianBlur992"
         stdDeviation="0.25852601"
         inkscape:collect="always" />
    </filter>
    <filter
       height="1.0929171"
       y="-0.046458537"
       width="1.0301703"
       x="-0.015085175"
       id="filter994"
       style="color-interpolation-filters:sRGB"
       inkscape:collect="always">
      <feGaussianBlur
         id="feGaussianBlur996"
         stdDeviation="0.25852601"
         inkscape:collect="always" />
    </filter>
    <filter
       height="1.1647715"
       y="-0.08238577"
       width="1.0662508"
       x="-0.03312542"
       id="filter998"
       style="color-interpolation-filters:sRGB"
       inkscape:collect="always">
      <feGaussianBlur
         id="feGaussianBlur1000"
         stdDeviation="0.25852601"
         inkscape:collect="always" />
    </filter>
  </defs>
  <sodipodi:namedview
     inkscape:window-maximized="1"
     inkscape:window-y="0"
     inkscape:window-x="0"
     inkscape:window-height="704"
     inkscape:window-width="1366"
     showgrid="false"
     inkscape:document-rotation="0"
     inkscape:current-layer="layer6"
     inkscape:document-units="mm"
     inkscape:cy="868.87013"
     inkscape:cx="343.04762"
     inkscape:zoom="0.8117387"
     inkscape:pageshadow="2"
     inkscape:pageopacity="0.0"
     borderopacity="1.0"
     bordercolor="#666666"
     pagecolor="#ffffff"
     id="base" />
  <metadata
     id="metadata5">
    <rdf:RDF>
      <cc:Work
         rdf:about="">
        <dc:format>image/svg+xml</dc:format>
        <dc:type
           rdf:resource="http://purl.org/dc/dcmitype/StillImage" />
        <dc:title></dc:title>
      </cc:Work>
    </rdf:RDF>
  </metadata>
  <g
     id="layer1"
     inkscape:groupmode="layer"
     inkscape:label="Layer 1">
    <g
       transform="matrix(1.9298608,0,0,1.7065465,-31.445957,-190.26723)"
       id="g1356">
      <ellipse
         style="fill:url(#linearGradient905);fill-opacity:1;fill-rule:evenodd;stroke:#ff00ff;stroke-width:0.265;stroke-miterlimit:4;stroke-dasharray:none;stroke-opacity:1;filter:url(#filter986)"
         id="path10"
         cx="51.418926"
         cy="260.70679"
         rx="41.352783"
         ry="9.7973738"
         transform="rotate(-5.5271663)" />
      <ellipse
         style="fill:url(#linearGradient907);fill-opacity:1;stroke:#ff00ff;stroke-width:0.265;stroke-miterlimit:4;stroke-dasharray:none;stroke-opacity:1;filter:url(#filter990)"
         id="path835"
         cx="51.418926"
         cy="260.70679"
         rx="33.532017"
         ry="8.7604256"
         transform="rotate(-5.5271663)" />
      <ellipse
         style="fill:url(#linearGradient909);fill-opacity:1;stroke:#ff00ff;stroke-width:0.265;stroke-miterlimit:4;stroke-dasharray:none;stroke-opacity:1;filter:url(#filter994)"
         id="path837"
         cx="51.418926"
         cy="260.70679"
         rx="20.652071"
         ry="6.4042163"
         transform="rotate(-5.5271663)" />
      <ellipse
         style="fill:url(#linearGradient911);fill-opacity:1;stroke:#ff00ff;stroke-width:0.265;stroke-miterlimit:4;stroke-dasharray:none;stroke-opacity:1;filter:url(#filter998)"
         id="path839"
         cx="51.418926"
         cy="260.70679"
         rx="9.4023857"
         ry="3.6721442"
         transform="rotate(-5.5271663)" />
    </g>
  </g>
  <g
     inkscape:label="Совёнок"
     id="layer2"
     inkscape:groupmode="layer" />
  <g
     inkscape:label="Крылошко"
     id="layer3"
     inkscape:groupmode="layer" />
  <g
     inkscape:label="Кеды"
     id="layer5"
     inkscape:groupmode="layer" />
  <g
     inkscape:label="Лохматость"
     id="layer4"
     inkscape:groupmode="layer" />
  <g
     inkscape:label="Мордочка"
     id="layer6"
     inkscape:groupmode="layer">
    <g
       transform="translate(-42.408687,4.1851012)"
       id="g1350">
      <g
         id="g1230">
        <ellipse
           transform="rotate(10.25768)"
           ry="31.659405"
           rx="22.688522"
           cy="170.44281"
           cx="156.16927"
           id="path1021"
           style="fill:#917c6f;fill-opacity:1;stroke:#550000;stroke-width:0.264999;stroke-miterlimit:4;stroke-dasharray:none;stroke-opacity:1" />
        <path
           inkscape:connector-curvature="0"
           id="path1024"
           d="m 110.26961,171.11929 c -8.28429,-7.45987 -15.647048,-4.15132 -15.647048,-4.15132 l 5.835468,3.97 -6.976348,2.45425 2.7191,2.19212 -3.79479,2.45222 -0.74768,2.09229 2.93708,1.74528 6.360418,1.65564 4.83245,-1.22577"
           style="fill:#ffb380;fill-opacity:1;stroke:#000000;stroke-width:0.264583px;stroke-linecap:butt;stroke-linejoin:miter;stroke-opacity:1" />
        <path
           style="fill:#ffb380;fill-opacity:1;stroke:#000000;stroke-width:0.264583px;stroke-linecap:butt;stroke-linejoin:miter;stroke-opacity:1"
           d="m 141.5314,173.95456 c 8.28429,-7.45987 15.64704,-4.15132 15.64704,-4.15132 l -5.83546,3.97 6.97634,2.45425 -2.7191,2.19212 3.79479,2.45222 0.74768,2.09229 -2.93708,1.74528 -6.36041,1.65564 -4.83245,-1.22577"
           id="path1024-6"
           inkscape:connector-curvature="0" />
        <path
           inkscape:connector-curvature="0"
           id="path1041"
           d="m 143.4517,203.24151 c 13.52012,4.43654 18.10266,-2.70008 18.10266,-2.70008 l 5.19101,7.93659 -7.91283,5.41036 0.59014,5.74379 -7.76343,1.52865 -2.56019,-2.80059 -6.85004,-0.51204 -3.71058,-7.26565"
           style="fill:#ffb380;fill-opacity:1;stroke:#000000;stroke-width:0.264583px;stroke-linecap:butt;stroke-linejoin:miter;stroke-opacity:1" />
        <path
           style="fill:#ffb380;fill-opacity:1;stroke:#000000;stroke-width:0.264583px;stroke-linecap:butt;stroke-linejoin:miter;stroke-opacity:1"
           d="M 99.35851,204.21128 C 85.838388,208.64782 81.255848,201.5112 81.255848,201.5112 l -5.19101,7.93659 7.91283,5.41036 -0.59014,5.74379 7.76343,1.52865 2.56019,-2.80059 6.850042,-0.51204 3.71058,-7.26565"
           id="path1041-7"
           inkscape:connector-curvature="0" />
        <path
           inkscape:connector-curvature="0"
           id="path1115"
           d="m 109.89406,221.73494 c -13.992123,13.46045 -1.97213,18.84568 -1.97213,18.84568 l 11.29813,-0.20169 3.18971,-7.77633 -1.56508,-4.01686"
           style="fill:#00aa00;fill-opacity:1;stroke:#000000;stroke-width:0.264583px;stroke-linecap:butt;stroke-linejoin:miter;stroke-opacity:1" />
        <path
           inkscape:connector-curvature="0"
           id="path1121"
           d="m 104.23512,237.98647 c 0.24437,0.82204 0.65973,1.43369 0.86925,2.26683 0.139,0.55277 0.38478,0.94043 0.63088,1.40505 0.0601,0.11343 -0.04,0.33217 0,0.45431 0.29067,0.88649 1.20756,1.28913 2.70076,1.79078 0.38905,0.1307 0.66739,0.5661 1.08723,0.67841 0.46043,0.12318 0.89104,0.0252 1.33714,0.17385 0.5439,0.1813 0.9226,0.38661 1.37789,0.69132 0.33501,0.22422 3.06962,-0.0828 3.44981,-0.17384 0.85684,-0.20526 2.42877,-1.51727 3.34522,-1.97549 0.2663,-0.13315 0.43631,-0.38581 0.6791,-0.50525 0.75826,-0.37304 1.93542,-0.87261 1.93542,-1.87702 0,-0.76315 -0.0819,-0.0299 0.17385,-0.52155 0.24378,-0.46852 0,-3.39741 0,-4.07457 0,-0.16047 -0.0943,-1.41386 -0.39931,-1.28486 -0.74187,0.31375 -0.0486,0.19706 -0.15415,0.37283 -0.85789,1.42805 -0.29301,1.49587 -0.61051,2.65119 -0.13862,0.50443 -0.51104,0.5851 -0.64989,0.98333 -0.21147,0.6065 0.32071,-0.0258 -0.17385,0.64514 -0.69373,0.94115 -1.94619,1.43863 -2.09162,1.47975 -0.21277,0.0602 -1.58419,-0.0943 -1.60063,0 -0.0535,0.3067 0.67702,-0.1061 0.86381,-0.35516 0.39759,-0.53011 0.90292,-2.06296 1.57415,-0.78572 0.0932,0.17743 0.0411,0.64282 -0.14872,0.75244 -0.29626,0.17106 -2.93923,0 -3.40974,0 -0.78685,0 -1.90847,-0.2105 -2.66003,0 -1.24815,0.34959 -3.09105,0.36202 -4.171,0.002 -0.16753,-0.0558 -0.40126,0.0635 -0.56569,0 -0.4324,-0.16694 -0.6469,-0.40681 -1.00438,-0.67571 -0.30735,-0.23119 -0.66153,-0.17322 -1.0071,-0.34566 -0.0662,-0.033 -0.10458,-0.20916 -0.15687,-0.15687 -0.0523,0.0523 0.18983,0.22307 0.15687,0.15687 -0.44071,-0.88509 -0.43477,-0.92097 -1.37789,-1.77244 z"
           style="fill:#aad400;fill-opacity:1;stroke:#000000;stroke-width:0.264583px;stroke-linecap:butt;stroke-linejoin:miter;stroke-opacity:1" />
        <path
           inkscape:connector-curvature="0"
           id="path1125"
           d="m 107.92193,240.58062 c -0.0139,0.89343 2.27259,1.37753 2.63829,2.41826 0.13227,0.3764 -0.11639,0.88289 0,1.26516 0.058,0.19036 0.23324,0.39716 -0.0496,0.5392 -0.35486,0.17823 -0.75408,-0.43314 -0.874,-0.67298"
           style="fill:none;stroke:#000000;stroke-width:0.264583px;stroke-linecap:butt;stroke-linejoin:miter;stroke-opacity:1" />
        <path
           inkscape:connector-curvature="0"
           id="path1127"
           d="m 113.64468,241.44783 c 0.87309,1.71771 0.245,0.12981 0.47876,1.98499 0.0568,0.45119 0.18742,0.1779 0.33615,0.47537 0.0751,0.1502 0,0.62123 0,0.783 0,0.32926 -0.7304,0.60847 -0.46043,0.60847"
           style="fill:none;stroke:#000000;stroke-width:0.264583px;stroke-linecap:butt;stroke-linejoin:miter;stroke-opacity:1" />
        <path
           inkscape:connector-curvature="0"
           id="path1129"
           d="m 119.22006,240.37893 c -1.24548,2.7483 -0.92518,1.86325 -0.43395,3.80905 0.10867,0.43046 0.3314,0.55385 0.3314,0.96092"
           style="fill:#d4ff2a;stroke:#000000;stroke-width:0.264583px;stroke-linecap:butt;stroke-linejoin:miter;stroke-opacity:1" />
        <path
           inkscape:connector-curvature="0"
           id="path1131"
           d="m 113.16196,226.23032 c -2.36056,0.75939 -1.42016,0.44348 -0.25546,1.45019 0.41963,0.36271 0.82413,0.64324 0.96635,1.2088 0.0279,0.11108 -0.0515,0.24129 0,0.34362 0.11047,0.21964 0.4116,0.30164 0.52155,0.52154 0.13956,0.27912 0.19287,0.5983 0.3477,0.86925 0.18301,0.32028 1.23251,2.00756 1.54766,2.23354 0.37932,0.27201 1.2149,-0.24396 1.47363,-0.34769 0.24654,-0.0988 -0.40798,0.26756 -0.70829,0.26756 -0.9272,0 -1.85439,0 -2.78158,0 -1.51936,0 -3.03873,0 -4.55809,0 -1.24896,0 -2.29581,-0.39317 -1.90554,1.26176 0.39676,1.68247 3.8853,1.41135 5.24126,1.566 0.76682,0.0874 1.53671,0.14627 2.30621,0.20576 0.27327,0.0211 0.78488,-0.0981 1.05463,0 0.0397,0.0144 0.1319,0.0896 0.0896,0.0896 -0.0874,0 -0.18488,-0.15167 -0.24651,-0.0896 -0.0566,0.057 0.14758,0.11339 0.14329,0.19354 -0.0285,0.53194 -1.21721,1.40261 -1.69774,1.52322 -0.49521,0.12428 -1.56975,0.13714 -2.10655,0 -0.63344,-0.16184 -0.77042,-0.65465 -1.61422,-0.65465 -0.17115,0 -0.56339,-0.0724 -0.71101,0 -0.44713,0.21934 -1.01917,1.0262 -1.59927,0.45227 -0.037,-0.0366 0.0521,-0.15619 0,-0.15619 -0.0521,0 -0.0292,0.19926 0,0.15619 0.13499,-0.19872 0.1814,-0.45179 0.32936,-0.64106 2.7e-4,-2.7e-4 0.3422,2.6e-4 0.34294,0 0.47181,-0.23683 0.74038,-0.63096 1.21287,-0.86721 0.43179,-0.21589 0.93202,-0.54187 1.39079,-0.69539 0.34919,-0.11686 0.80554,-0.1669 1.14903,-0.34091 0.16203,-0.0821 2.11983,-0.93907 2.08686,-1.04309 -0.18051,-0.56948 -1.8178,-0.5867 -2.03321,-0.65125 -0.96157,-0.28814 -1.1085,-1.12629 -1.55853,-1.87634 -0.40872,-0.68121 -0.91212,-0.39089 -1.72286,-1.25905 -0.61007,-0.65328 2.14092,-1.28122 2.24713,-1.29639 0.93676,-0.13383 2.00319,0 2.95135,0 1.92917,0 3.84979,-0.0192 5.77934,-0.0686"
           style="fill:none;stroke:#d4ff2a;stroke-width:0.264583px;stroke-linecap:butt;stroke-linejoin:miter;stroke-opacity:1" />
        <path
           style="fill:#00aa00;fill-opacity:1;stroke:#000000;stroke-width:0.264583px;stroke-linecap:butt;stroke-linejoin:miter;stroke-opacity:1"
           d="m 137.76767,219.53058 c 13.99212,13.46045 1.97213,18.84568 1.97213,18.84568 l -11.29813,-0.20169 -3.18971,-7.77633 1.56508,-4.01686"
           id="path1115-5"
           inkscape:connector-curvature="0" />
        <path
           style="fill:#aad400;fill-opacity:1;stroke:#000000;stroke-width:0.264583px;stroke-linecap:butt;stroke-linejoin:miter;stroke-opacity:1"
           d="m 143.42661,235.78211 c -0.24437,0.82204 -0.65973,1.43369 -0.86925,2.26683 -0.139,0.55277 -0.38478,0.94043 -0.63088,1.40505 -0.0601,0.11343 0.04,0.33217 0,0.45431 -0.29067,0.88649 -1.20756,1.28913 -2.70076,1.79078 -0.38905,0.1307 -0.66739,0.5661 -1.08723,0.67841 -0.46043,0.12318 -0.89104,0.0252 -1.33714,0.17385 -0.5439,0.1813 -0.9226,0.38661 -1.37789,0.69132 -0.33501,0.22422 -3.06962,-0.0828 -3.44981,-0.17384 -0.85684,-0.20526 -2.42877,-1.51727 -3.34522,-1.97549 -0.2663,-0.13315 -0.43631,-0.38581 -0.6791,-0.50525 -0.75826,-0.37304 -1.93542,-0.87261 -1.93542,-1.87702 0,-0.76315 0.0819,-0.0299 -0.17385,-0.52155 -0.24378,-0.46852 0,-3.39741 0,-4.07457 0,-0.16047 0.0943,-1.41386 0.39931,-1.28486 0.74187,0.31375 0.0486,0.19706 0.15415,0.37283 0.85789,1.42805 0.29301,1.49587 0.61051,2.65119 0.13862,0.50443 0.51104,0.5851 0.64989,0.98333 0.21147,0.6065 -0.32071,-0.0258 0.17385,0.64514 0.69373,0.94115 1.94619,1.43863 2.09162,1.47975 0.21277,0.0602 1.58419,-0.0943 1.60063,0 0.0535,0.3067 -0.67702,-0.1061 -0.86381,-0.35516 -0.39759,-0.53011 -0.90292,-2.06296 -1.57415,-0.78572 -0.0932,0.17743 -0.0411,0.64282 0.14872,0.75244 0.29626,0.17106 2.93923,0 3.40974,0 0.78685,0 1.90847,-0.2105 2.66003,0 1.24815,0.34959 3.09105,0.36202 4.171,0.002 0.16753,-0.0558 0.40126,0.0635 0.56569,0 0.4324,-0.16694 0.6469,-0.40681 1.00438,-0.67571 0.30735,-0.2312 0.66153,-0.17323 1.0071,-0.34567 0.0662,-0.033 0.10458,-0.20916 0.15687,-0.15687 0.0523,0.0523 -0.18983,0.22307 -0.15687,0.15687 0.44071,-0.88509 0.43477,-0.92097 1.37789,-1.77244 z"
           id="path1121-3"
           inkscape:connector-curvature="0" />
        <path
           style="fill:none;stroke:#000000;stroke-width:0.264583px;stroke-linecap:butt;stroke-linejoin:miter;stroke-opacity:1"
           d="m 139.7398,238.37626 c 0.0139,0.89343 -2.27259,1.37753 -2.63829,2.41826 -0.13227,0.3764 0.11639,0.88289 0,1.26516 -0.058,0.19036 -0.23324,0.39716 0.0496,0.5392 0.35486,0.17823 0.75408,-0.43314 0.874,-0.67298"
           id="path1125-5"
           inkscape:connector-curvature="0" />
        <path
           style="fill:none;stroke:#000000;stroke-width:0.264583px;stroke-linecap:butt;stroke-linejoin:miter;stroke-opacity:1"
           d="m 134.01705,239.24347 c -0.87309,1.71771 -0.245,0.12981 -0.47876,1.98499 -0.0568,0.45119 -0.18742,0.1779 -0.33615,0.47537 -0.0751,0.1502 0,0.62123 0,0.783 0,0.32926 0.7304,0.60847 0.46043,0.60847"
           id="path1127-6"
           inkscape:connector-curvature="0" />
        <path
           style="fill:#d4ff2a;stroke:#000000;stroke-width:0.264583px;stroke-linecap:butt;stroke-linejoin:miter;stroke-opacity:1"
           d="m 128.44167,238.17457 c 1.24548,2.7483 0.92518,1.86325 0.43395,3.80905 -0.10867,0.43046 -0.3314,0.55385 -0.3314,0.96092"
           id="path1129-2"
           inkscape:connector-curvature="0" />
        <path
           style="fill:none;stroke:#d4ff2a;stroke-width:0.264583px;stroke-linecap:butt;stroke-linejoin:miter;stroke-opacity:1"
           d="m 134.49977,224.02596 c 2.36056,0.75939 1.42016,0.44348 0.25546,1.45019 -0.41963,0.36271 -0.82413,0.64324 -0.96635,1.2088 -0.0279,0.11108 0.0515,0.24129 0,0.34362 -0.11047,0.21964 -0.4116,0.30164 -0.52155,0.52154 -0.13956,0.27912 -0.19287,0.5983 -0.3477,0.86925 -0.18301,0.32028 -1.23251,2.00756 -1.54766,2.23354 -0.37932,0.27201 -1.2149,-0.24396 -1.47363,-0.34769 -0.24654,-0.0988 0.40798,0.26756 0.70829,0.26756 0.9272,0 1.85439,0 2.78158,0 1.51936,0 3.03873,0 4.55809,0 1.24896,0 2.29581,-0.39317 1.90554,1.26176 -0.39676,1.68247 -3.8853,1.41135 -5.24126,1.566 -0.76682,0.0874 -1.53671,0.14627 -2.30621,0.20576 -0.27327,0.0211 -0.78488,-0.0981 -1.05463,0 -0.0397,0.0144 -0.1319,0.0896 -0.0896,0.0896 0.0874,0 0.18488,-0.15167 0.24651,-0.0896 0.0566,0.057 -0.14758,0.11339 -0.14329,0.19354 0.0285,0.53194 1.21721,1.40261 1.69774,1.52322 0.49521,0.12428 1.56975,0.13714 2.10655,0 0.63344,-0.16184 0.77042,-0.65465 1.61422,-0.65465 0.17115,0 0.56339,-0.0724 0.71101,0 0.44713,0.21934 1.01917,1.0262 1.59927,0.45227 0.037,-0.0366 -0.0521,-0.15619 0,-0.15619 0.0521,0 0.0292,0.19926 0,0.15619 -0.13499,-0.19872 -0.1814,-0.45179 -0.32936,-0.64106 -2.6e-4,-2.6e-4 -0.3422,2.6e-4 -0.34294,0 -0.47181,-0.23683 -0.74038,-0.63096 -1.21287,-0.86721 -0.43179,-0.21589 -0.93202,-0.54187 -1.39079,-0.69539 -0.34919,-0.11686 -0.80554,-0.1669 -1.14903,-0.34091 -0.16203,-0.0821 -2.11983,-0.93907 -2.08686,-1.04309 0.18051,-0.56948 1.8178,-0.5867 2.03321,-0.65125 0.96157,-0.28814 1.1085,-1.12629 1.55853,-1.87634 0.40872,-0.68121 0.91212,-0.39089 1.72286,-1.25905 0.61007,-0.65328 -2.14092,-1.28122 -2.24713,-1.29639 -0.93676,-0.13383 -2.00319,0 -2.95135,0 -1.92917,0 -3.84979,-0.0192 -5.77934,-0.0686"
           id="path1131-9"
           inkscape:connector-curvature="0" />
        <path
           style="fill:#ac9d93;fill-opacity:1;stroke:#550000;stroke-width:0.264999;stroke-miterlimit:4;stroke-dasharray:none;stroke-opacity:1"
           id="path1102-1"
           d="m 126.83224,223.93283 c -0.0247,0.81588 -0.0214,1.63241 -0.0152,2.44855 0,0 -1.03448,-0.52709 -1.03448,-0.52709 v 0 c 0.006,-0.82131 0.009,-1.64299 -0.0152,-2.46404 0,0 1.06487,0.54258 1.06487,0.54258 z"
           inkscape:connector-curvature="0" />
        <path
           style="fill:#ac9d93;fill-opacity:1;stroke:#550000;stroke-width:0.264999;stroke-miterlimit:4;stroke-dasharray:none;stroke-opacity:1"
           id="path1106-2"
           d="m 137.76767,219.53058 c -0.25233,0.97145 -0.65585,1.9013 -1.01649,2.83714 -0.20277,0.48472 -0.37387,1.04627 -0.87249,1.31961 -0.43581,0.23892 -0.90103,0.2648 -1.37892,0.33863 0,0 -0.91105,-0.64147 -0.91105,-0.64147 v 0 c 0.44935,-0.0649 0.90434,-0.0872 1.31748,-0.30399 0.48466,-0.25429 0.65817,-0.7977 0.86144,-1.26045 0.35703,-0.92347 0.75983,-1.8558 0.93119,-2.83407 0,0 1.06884,0.5446 1.06884,0.5446 z"
           inkscape:connector-curvature="0" />
        <path
           inkscape:connector-curvature="0"
           d="m 122.92651,166.26618 c -0.19139,-0.77556 -0.60252,-1.05914 -1.27693,-1.43593 -1.49615,-0.62424 -3.08521,-0.98394 -4.64366,-1.41609 -1.02532,-0.26444 -1.9898,-0.70265 -2.98629,-1.05195 -0.31918,-0.11446 -0.64891,-0.19406 -0.9766,-0.27923 0,0 -0.96668,0.666 -0.96668,0.666 v 0 c 0.33019,0.0831 0.66348,0.15497 0.98753,0.26079 1.01153,0.33461 1.97994,0.78981 3.02013,1.03765 1.55057,0.40985 3.13656,0.74586 4.60483,1.40782 0.64828,0.37308 1.03319,0.62811 1.18684,1.38913 0,0 1.05083,-0.57819 1.05083,-0.57819 z"
           id="path1072"
           style="fill:#ac9d93;fill-opacity:1;stroke:#550000;stroke-width:0.264999;stroke-miterlimit:4;stroke-dasharray:none;stroke-opacity:1" />
        <path
           inkscape:connector-curvature="0"
           d="m 125.89414,166.10698 c 0.59328,-0.76037 1.21086,-1.50197 1.81199,-2.25648 0.25613,-0.31925 0.53422,-0.61646 0.86832,-0.85519 0.0962,-0.0688 0.40194,-0.24928 0.29918,-0.19072 -1.15947,0.66083 -0.83983,0.49104 -0.42616,0.28302 0.83042,-0.39879 1.69055,-0.73799 2.55506,-1.05531 1.45298,-0.44339 2.98115,-0.5414 4.48974,-0.62125 0.91994,-0.0417 1.84026,-0.0535 2.76063,-0.0277 0,0 0.91239,-0.65908 0.91239,-0.65908 v 0 c -0.92349,-0.0247 -1.84712,-0.0139 -2.7703,0.0235 -1.50865,0.082 -3.03488,0.18706 -4.49774,0.58626 -0.85961,0.29988 -1.70841,0.64204 -2.53541,1.02269 -1.0253,0.50089 -2.02188,1.01565 -2.70897,1.94435 -0.608,0.77139 -1.23443,1.52721 -1.86298,2.28178 0,0 1.10425,-0.47586 1.10425,-0.47586 z"
           id="path1074"
           style="fill:#ac9d93;fill-opacity:1;stroke:#550000;stroke-width:0.264999;stroke-miterlimit:4;stroke-dasharray:none;stroke-opacity:1" />
        <path
           inkscape:connector-curvature="0"
           d="m 129.28254,167.87675 c 1.05104,-0.5068 2.15859,-0.88591 3.26375,-1.2551 2.01865,-0.62993 4.08457,-1.09014 6.13292,-1.61054 1.56449,-0.44719 3.13465,-0.87412 4.69925,-1.32089 0,0 0.86321,-0.66494 0.86321,-0.66494 v 0 c -1.57129,0.45697 -3.15292,0.87719 -4.72192,1.34229 -2.02905,0.52588 -4.08052,0.96795 -6.08964,1.56798 -1.08865,0.35285 -2.1673,0.73824 -3.21903,1.19067 0,0 -0.92854,0.75053 -0.92854,0.75053 z"
           id="path1076"
           style="fill:#ac9d93;fill-opacity:1;stroke:#550000;stroke-width:0.264999;stroke-miterlimit:4;stroke-dasharray:none;stroke-opacity:1" />
        <path
           inkscape:connector-curvature="0"
           d="m 125.74021,170.2378 c 0.50092,0.31553 0.9258,0.73246 1.39254,1.09373 0.4047,0.31325 0.59345,0.43593 1.01221,0.72606 1.05536,0.65309 2.14783,1.25374 3.2716,1.78111 0.78778,0.30205 1.67901,0.57469 2.09796,1.37882 0.054,0.10362 0.082,0.21882 0.12293,0.32823 0,0 1.01863,-0.56809 1.01863,-0.56809 v 0 c -0.0475,-0.1154 -0.0824,-0.23685 -0.1425,-0.3462 -0.44947,-0.81718 -1.32975,-1.12032 -2.15586,-1.41554 -1.12016,-0.52214 -2.20435,-1.12352 -3.25925,-1.76679 -0.41117,-0.2818 -0.61198,-0.40921 -1.00445,-0.71951 -0.45794,-0.36208 -0.86395,-0.78504 -1.33668,-1.12818 0,0 -1.01713,0.63636 -1.01713,0.63636 z"
           id="path1078"
           style="fill:#ac9d93;fill-opacity:1;stroke:#550000;stroke-width:0.264999;stroke-miterlimit:4;stroke-dasharray:none;stroke-opacity:1" />
        <path
           inkscape:connector-curvature="0"
           d="m 124.65533,169.84002 c -1.13202,0.62727 -2.24629,1.28686 -3.36727,1.9335 -0.0901,0.052 0.35999,-0.20803 0.26817,-0.15926 -0.21482,0.11409 -0.4249,0.23689 -0.63736,0.35534 -0.71499,0.38889 -1.43744,0.78755 -2.21567,1.03884 -0.43218,0.13956 -0.55107,0.14297 -1.00668,0.22201 -0.91177,0.11764 -1.83253,0.12567 -2.75035,0.11941 -0.43518,0.0279 -0.83801,-0.0729 -1.23772,-0.23197 0,0 -0.98177,0.65643 -0.98177,0.65643 v 0 c 0.40883,0.17295 0.82067,0.30204 1.27203,0.26385 0.92926,-0.005 1.86041,-0.0193 2.78495,-0.12187 0.43472,-0.0651 0.60138,-0.0725 1.01648,-0.20126 0.79207,-0.24571 1.5252,-0.65489 2.25147,-1.04532 1.60999,-0.89709 2.18787,-1.27298 3.66873,-2.08034 0,0 0.93499,-0.74936 0.93499,-0.74936 z"
           id="path1080"
           style="fill:#ac9d93;fill-opacity:1;stroke:#550000;stroke-width:0.264999;stroke-miterlimit:4;stroke-dasharray:none;stroke-opacity:1" />
        <path
           inkscape:connector-curvature="0"
           d="m 102.77763,201.98533 c 0.0305,0.87707 0.0301,1.75488 0.0269,2.63235 0.008,0.74626 0.007,1.52848 0.20209,2.25659 0.0368,0.13744 0.095,0.26821 0.14254,0.40231 0.1392,0.37134 0.34856,0.66981 0.60845,0.96204 0,0 0.99757,-0.60412 0.99757,-0.60412 v 0 c -0.2527,-0.27724 -0.45728,-0.56245 -0.59205,-0.91843 -0.29098,-0.83817 -0.34471,-1.73433 -0.34054,-2.61711 -0.003,-0.88663 -0.003,-1.77357 0.0269,-2.6598 0,0 -1.07192,0.54617 -1.07192,0.54617 z"
           id="path1082"
           style="fill:#ac9d93;fill-opacity:1;stroke:#550000;stroke-width:0.264999;stroke-miterlimit:4;stroke-dasharray:none;stroke-opacity:1" />
        <path
           inkscape:connector-curvature="0"
           d="m 109.51726,204.03759 c -0.23223,0.95195 -0.30568,1.94297 -0.33148,2.92054 0.0128,1.08895 0.49752,2.09405 0.84025,3.10965 0.054,0.15136 0.10794,0.30272 0.16191,0.45408 0,0 1.00554,-0.55777 1.00554,-0.55777 v 0 c -0.0564,-0.14915 -0.11286,-0.2983 -0.1693,-0.44745 -0.35261,-0.9982 -0.79642,-2.00073 -0.81986,-3.07421 0.0241,-0.97355 0.086,-1.97545 0.39973,-2.90369 0,0 -1.08679,0.49885 -1.08679,0.49885 z"
           id="path1084"
           style="fill:#ac9d93;fill-opacity:1;stroke:#550000;stroke-width:0.264999;stroke-miterlimit:4;stroke-dasharray:none;stroke-opacity:1" />
        <path
           inkscape:connector-curvature="0"
           d="m 116.62328,205.55214 c 0.32463,1.64098 0.63615,3.28449 1.03899,4.90844 0.0991,0.32825 0.15018,0.66807 0.38833,0.93359 0.0626,0.0699 0.15932,0.0992 0.23898,0.14874 0,0 0.98677,-0.64838 0.98677,-0.64838 v 0 c -0.0745,-0.0287 -0.16415,-0.0326 -0.22343,-0.0861 -0.25133,-0.2266 -0.31225,-0.57903 -0.41374,-0.87754 -0.44568,-1.61801 -0.77758,-3.26754 -0.97191,-4.9353 0,0 -1.04399,0.55653 -1.04399,0.55653 z"
           id="path1086"
           style="fill:#ac9d93;fill-opacity:1;stroke:#550000;stroke-width:0.264999;stroke-miterlimit:4;stroke-dasharray:none;stroke-opacity:1" />
        <path
           inkscape:connector-curvature="0"
           d="m 125.95001,205.81273 c -0.0135,1.23519 -0.0529,2.47186 -0.0742,3.70768 -0.0255,1.5867 -0.18133,3.16645 -0.37592,4.74004 0,0 0.99605,-0.49396 0.99605,-0.49396 v 0 c 0.14852,-1.57613 0.30863,-3.15281 0.34775,-4.73651 0.0348,-1.25577 0.0915,-2.51003 0.17774,-3.76315 0,0 -1.07139,0.5459 -1.07139,0.5459 z"
           id="path1088"
           style="fill:#ac9d93;fill-opacity:1;stroke:#550000;stroke-width:0.264999;stroke-miterlimit:4;stroke-dasharray:none;stroke-opacity:1" />
        <path
           inkscape:connector-curvature="0"
           d="m 134.58519,208.582 c -0.49161,1.48253 -0.97283,2.9662 -1.40814,4.4672 -0.40058,1.35706 -0.19851,0.71387 -0.60021,1.93143 0,0 0.98664,-0.46522 0.98664,-0.46522 v 0 c 0.36515,-1.2072 0.17765,-0.56932 0.55905,-1.91465 0.44888,-1.53267 0.95847,-3.04049 1.55314,-4.52288 0,0 -1.09048,0.50412 -1.09048,0.50412 z"
           id="path1090"
           style="fill:#ac9d93;fill-opacity:1;stroke:#550000;stroke-width:0.264999;stroke-miterlimit:4;stroke-dasharray:none;stroke-opacity:1" />
        <path
           inkscape:connector-curvature="0"
           d="m 137.47828,211.14954 c 0.22259,0.86422 0.30545,1.76159 0.38744,2.64838 0.0581,1.48759 0.22208,2.99073 0.12323,4.48077 -0.0156,0.2353 -0.0581,0.46803 -0.0871,0.70205 -0.0447,0.18328 -0.0894,0.36656 -0.13418,0.54984 0,0 1.02512,-0.49438 1.02512,-0.49438 v 0 c 0.0369,-0.1841 0.0739,-0.36819 0.11083,-0.55228 0.16171,-1.72849 0.002,-3.47158 -0.0435,-5.20319 -0.0681,-0.90281 -0.14698,-1.80876 -0.32168,-2.69819 0,0 -1.06014,0.567 -1.06014,0.567 z"
           id="path1092"
           style="fill:#ac9d93;fill-opacity:1;stroke:#550000;stroke-width:0.264999;stroke-miterlimit:4;stroke-dasharray:none;stroke-opacity:1" />
        <path
           inkscape:connector-curvature="0"
           d="m 108.28526,213.00005 c 0.65981,1.28067 1.16123,2.63922 1.7124,3.96946 0.29391,0.70745 0.59442,1.412 0.88576,2.12051 0,0 0.98103,-0.55068 0.98103,-0.55068 v 0 c -0.30825,-0.69942 -0.62157,-1.39666 -0.9168,-2.10173 -0.55035,-1.33623 -1.06603,-2.68615 -1.61355,-4.02326 0,0 -1.04884,0.5857 -1.04884,0.5857 z"
           id="path1094"
           style="fill:#ac9d93;fill-opacity:1;stroke:#550000;stroke-width:0.264999;stroke-miterlimit:4;stroke-dasharray:none;stroke-opacity:1" />
        <path
           inkscape:connector-curvature="0"
           d="m 114.03964,218.47007 c 0.11058,0.95009 0.14022,1.90712 0.16456,2.86256 0.0114,0.57016 -0.001,0.29074 0.0369,0.83832 0,0 1.03062,-0.53461 1.03062,-0.53461 v 0 c -0.0409,-0.53989 -0.0254,-0.2636 -0.0452,-0.82895 -0.0405,-0.96026 -0.0831,-1.92049 -0.12013,-2.88085 0,0 -1.06672,0.54353 -1.06672,0.54353 z"
           id="path1096"
           style="fill:#ac9d93;fill-opacity:1;stroke:#550000;stroke-width:0.264999;stroke-miterlimit:4;stroke-dasharray:none;stroke-opacity:1" />
        <path
           inkscape:connector-curvature="0"
           d="m 126.42392,217.7477 c -0.009,1.18166 -0.25507,2.35417 -0.45578,3.5157 -0.0451,0.22981 -0.0901,0.45962 -0.13514,0.68943 0,0 1.00645,-0.48919 1.00645,-0.48919 v 0 c 0.0424,-0.22927 0.0847,-0.45854 0.12708,-0.68781 0.20106,-1.1861 0.44215,-2.37352 0.52897,-3.57413 0,0 -1.07158,0.546 -1.07158,0.546 z"
           id="path1098"
           style="fill:#ac9d93;fill-opacity:1;stroke:#550000;stroke-width:0.264999;stroke-miterlimit:4;stroke-dasharray:none;stroke-opacity:1" />
        <path
           inkscape:connector-curvature="0"
           d="m 122.38094,215.91546 c 0.007,0.92467 0.0691,1.84545 0.15254,2.76597 0,0 1.00733,-0.52553 1.00733,-0.52553 v 0 c -0.0949,-0.92512 -0.16008,-1.85237 -0.0958,-2.78261 0,0 -1.06408,0.54217 -1.06408,0.54217 z"
           id="path1100"
           style="fill:#ac9d93;fill-opacity:1;stroke:#550000;stroke-width:0.264999;stroke-miterlimit:4;stroke-dasharray:none;stroke-opacity:1" />
        <path
           inkscape:connector-curvature="0"
           d="m 120.82949,226.13719 c 0.0247,0.81588 0.0214,1.63241 0.0152,2.44855 0,0 1.03448,-0.52709 1.03448,-0.52709 v 0 c -0.006,-0.82131 -0.009,-1.64299 0.0152,-2.46404 0,0 -1.06487,0.54258 -1.06487,0.54258 z"
           id="path1102"
           style="fill:#ac9d93;fill-opacity:1;stroke:#550000;stroke-width:0.264999;stroke-miterlimit:4;stroke-dasharray:none;stroke-opacity:1" />
        <path
           inkscape:connector-curvature="0"
           d="m 130.41372,222.4807 c 0.058,0.78674 -0.006,1.56558 -0.12816,2.34243 -0.16642,0.71003 -0.0732,0.35646 -0.28014,1.06062 0,0 1.02951,-0.48842 1.02951,-0.48842 v 0 c 0.20475,-0.71354 0.11135,-0.35465 0.28027,-1.07665 0.12548,-0.79153 0.17688,-1.58239 0.16988,-2.38387 0,0 -1.07136,0.54589 -1.07136,0.54589 z"
           id="path1104"
           style="fill:#ac9d93;fill-opacity:1;stroke:#550000;stroke-width:0.264999;stroke-miterlimit:4;stroke-dasharray:none;stroke-opacity:1" />
        <path
           inkscape:connector-curvature="0"
           d="m 109.89406,221.73494 c 0.25233,0.97145 0.65585,1.9013 1.01649,2.83714 0.20277,0.48472 0.37387,1.04627 0.87249,1.31961 0.43581,0.23892 0.90103,0.2648 1.37892,0.33863 0,0 0.91105,-0.64147 0.91105,-0.64147 v 0 c -0.44935,-0.0649 -0.90434,-0.0872 -1.31748,-0.30399 -0.48466,-0.25429 -0.65817,-0.7977 -0.86144,-1.26045 -0.35703,-0.92347 -0.75983,-1.8558 -0.93119,-2.83407 0,0 -1.06884,0.5446 -1.06884,0.5446 z"
           id="path1106"
           style="fill:#ac9d93;fill-opacity:1;stroke:#550000;stroke-width:0.264999;stroke-miterlimit:4;stroke-dasharray:none;stroke-opacity:1" />
        <path
           inkscape:connector-curvature="0"
           d="m 104.27177,211.55231 c 0.38252,0.29984 0.55098,0.83414 0.70859,1.27376 0.21571,0.60168 0.29068,0.91822 0.46617,1.54763 0.22668,0.83582 0.46775,1.66753 0.71169,2.49843 0,0 0.96835,-0.52937 0.96835,-0.52937 v 0 c -0.25158,-0.82701 -0.50401,-1.65405 -0.71726,-2.49205 -0.17009,-0.65061 -0.2374,-0.94943 -0.43987,-1.57423 -0.15614,-0.4818 -0.31468,-1.02597 -0.6919,-1.38593 0,0 -1.00577,0.66176 -1.00577,0.66176 z"
           id="path1108"
           style="fill:#ac9d93;fill-opacity:1;stroke:#550000;stroke-width:0.264999;stroke-miterlimit:4;stroke-dasharray:none;stroke-opacity:1" />
        <path
           inkscape:connector-curvature="0"
           d="m 122.22248,213.82582 c -0.0804,1.33716 -0.31819,2.66491 -0.53038,3.98722 -0.14966,0.6424 -0.2073,1.35002 -0.51768,1.94636 -0.12324,0.23678 -0.20825,0.29625 -0.38904,0.47777 -0.31617,0.23831 -1.17098,0.86005 0.37461,-0.16287 0.0847,-0.0561 -0.18471,0.0848 -0.27796,0.12515 -0.25868,0.11201 -0.32825,0.13595 -0.58867,0.23655 0,0 -0.9235,0.72376 -0.9235,0.72376 v 0 c 0.89054,-0.3349 1.79767,-0.71816 2.50016,-1.37693 0.17719,-0.20684 0.24283,-0.25613 0.36131,-0.51498 0.27762,-0.60654 0.32489,-1.30096 0.45881,-1.94413 0.20177,-1.3461 0.44043,-2.68867 0.59688,-4.0403 0,0 -1.06454,0.5424 -1.06454,0.5424 z"
           id="path1110"
           style="fill:#ac9d93;fill-opacity:1;stroke:#550000;stroke-width:0.264999;stroke-miterlimit:4;stroke-dasharray:none;stroke-opacity:1" />
        <path
           inkscape:connector-curvature="0"
           d="m 111.83762,206.90607 c -0.1814,1.02824 -0.30303,2.06184 -0.36076,3.10405 -0.01,1.3881 -0.15096,2.78385 -0.0545,4.17038 0.0872,0.69999 0.25747,1.38514 0.46108,2.05924 0,0 1.02418,-0.56095 1.02418,-0.56095 v 0 c -0.20736,-0.66175 -0.38292,-1.33564 -0.47016,-2.02492 -0.10676,-1.37849 -0.01,-2.76687 0.0416,-4.14606 0.0806,-1.04755 0.19172,-2.09329 0.4304,-3.11863 0,0 -1.07179,0.51689 -1.07179,0.51689 z"
           id="path1112"
           style="fill:#ac9d93;fill-opacity:1;stroke:#550000;stroke-width:0.264999;stroke-miterlimit:4;stroke-dasharray:none;stroke-opacity:1" />
      </g>
      <ellipse
         style="fill:#f6ffd5;fill-opacity:1;stroke:none;stroke-width:0.264999;stroke-miterlimit:4;stroke-dasharray:none;stroke-opacity:1"
         id="path1233"
         cx="116.77237"
         cy="184.24457"
         rx="5.4866452"
         ry="8.2248087" />
      <circle
         style="fill:#24221c;fill-opacity:1;stroke:none;stroke-width:0.264999;stroke-miterlimit:4;stroke-dasharray:none;stroke-opacity:1"
         id="path1235"
         cx="117.20959"
         cy="188.06104"
         r="2.5978818" />
      <ellipse
         ry="8.2248087"
         rx="5.4866452"
         cy="185.01494"
         cx="-132.37415"
         id="path1233-7"
         style="fill:#f6ffd5;fill-opacity:1;stroke:none;stroke-width:0.264999;stroke-miterlimit:4;stroke-dasharray:none;stroke-opacity:1"
         transform="scale(-1,1)" />
      <circle
         r="2.5978818"
         cy="188.83141"
         cx="-131.93694"
         id="path1235-0"
         style="fill:#24221c;fill-opacity:1;stroke:none;stroke-width:0.264999;stroke-miterlimit:4;stroke-dasharray:none;stroke-opacity:1"
         transform="scale(-1,1)" />
      <path
         style="fill:#ffcc00;fill-opacity:1;stroke:#000000;stroke-width:0.264583px;stroke-linecap:butt;stroke-linejoin:miter;stroke-opacity:1"
         d="m 123.63961,192.96309 c -0.85561,0.79057 -1.00057,1.52831 -1.33035,2.49839 -0.10746,0.31612 -0.33099,0.44564 -0.43666,0.76263 -0.39852,1.19557 -0.0163,2.44151 -0.0163,3.64131 0,0.31466 0.16094,1.78638 0.3117,1.78263 0.64544,-0.0161 1.99204,-3.03029 2.73948,-3.52858 0.69563,-0.46376 1.45026,-0.84427 2.15952,-1.30862 0.36855,-0.24129 0.65207,-0.66781 1.05871,-0.78368 0.10795,-0.0308 0.87192,-0.29501 0.86924,-0.41357 -0.0173,-0.76593 -3.9108,-1.83288 -4.02975,-1.88449 -0.46818,-0.20311 -0.82001,-0.69656 -1.3256,-0.76602 -0.36521,-0.0502 -0.6547,0.35618 -1.01253,0.44481 -0.14605,0.0362 -0.17784,-0.26757 -0.31918,-0.31918 -0.22417,-0.0819 -0.76212,-0.0716 -0.97993,0 -0.37181,0.12228 -0.98065,0.17242 -1.28553,0.33887 -0.11133,0.0608 -0.60657,0.45125 -0.81356,0.49303 -0.69046,0.13937 -1.43958,0.12688 -1.99111,0.67841 -0.22752,0.22753 -1.40298,0.49785 -1.30046,0.80541 0.25402,0.76208 1.15881,1.15646 2.07463,1.76701 0.19871,0.13247 0.29291,0.39998 0.50661,0.5066 0.50227,0.25061 0.80922,0.27313 1.28892,0.64378 0.28365,0.21917 0.37948,0.55333 0.61119,0.78504 0.66152,0.66152 0.1073,-0.0197 0.51,0.17385 0.31241,0.15012 0.8529,0.64831 1.04988,0.95617 0.22022,0.34416 0.19368,0.93728 0.43938,1.18298"
         id="path1255"
         inkscape:connector-curvature="0" />
      <circle
         id="path1257"
         style="fill:#24221c;stroke:#000000"
         cx="124.97811"
         cy="195.28764"
         r="0.040587917" />
      <circle
         id="path1259"
         style="fill:#24221c;stroke:#000000"
         cx="119.982"
         cy="195.44588"
         r="0.040587917" />
    </g>
    <path
       inkscape:connector-curvature="0"
       d="m 35.676842,100.85451 c -0.460367,0.26878 -0.938083,0.50984 -1.381101,0.80635 -0.251928,0.16861 0.534826,-0.28573 0.805926,-0.42139 1.447644,-0.72439 2.92313,-1.334773 4.448966,-1.872301 1.02226,-0.309514 2.546871,-0.911431 3.475908,-0.01908 0.141163,0.135591 0.228759,0.31768 0.343138,0.47652 0.741339,1.568351 0.874419,3.326911 0.889397,5.037401 -0.0091,1.98294 -0.353602,3.94101 -0.590989,5.90412 -0.214268,1.82155 -0.628293,3.60812 -0.925084,5.41561 -0.192897,1.55678 -0.413777,3.12793 -0.265626,4.69672 0.06508,0.30585 0.07836,0.57079 0.286906,0.8222 0.698429,0.84201 2.186067,0.32665 3.021442,0.14422 2.463331,-0.69056 4.631539,-1.98136 6.687867,-3.4951 0.528701,-0.3892 1.492449,-1.55953 1.910149,-2.04226 1.86531,-2.13091 2.863315,-4.74539 3.714038,-7.40158 0.843121,-2.87794 1.509824,-5.8009 2.413005,-8.66137 0.541661,-1.760914 1.192522,-3.486294 1.771865,-5.233833 -0.725525,0.323144 -1.500775,0.552175 -2.176574,0.969428 -0.166227,0.102632 -0.157472,0.358103 -0.251182,0.529519 -0.140153,0.256371 -0.300689,0.501065 -0.449636,0.752427 -0.621929,1.049565 -1.244534,2.098636 -1.8607,3.151599 -1.305314,2.3855 -2.809688,4.65424 -4.13852,7.02536 -1.120442,1.91522 -1.734693,4.02816 -2.331712,6.14489 -0.477809,1.64152 -0.757754,3.31456 -0.907127,5.0141 -0.119007,1.6829 -0.126939,3.37028 -0.126283,5.05644 0.02601,1.96315 0.02307,3.92326 -0.08033,5.88388 -0.101944,2.07611 -0.55114,4.10623 -0.879332,6.15251 -0.158459,1.98261 -0.645327,3.89069 -1.245473,5.77837 -0.02267,0.0699 -0.488299,1.53388 -0.563446,1.66823 -0.106071,0.18963 -0.61944,0.59664 -0.430371,0.48957 0.438168,-0.24813 1.040513,-0.44406 1.195832,-0.92305 0.09036,-0.27867 -0.58809,-0.011 -0.876729,-0.061 -0.368488,-0.0639 -0.724395,-0.18638 -1.086591,-0.27957 -1.362032,-0.40325 -2.707748,-0.96733 -3.866419,-1.80569 -1.831322,-1.32507 -3.248324,-3.0786 -4.677236,-4.80217 -1.175631,-1.51485 -2.302004,-3.06667 -3.429825,-4.61708 0,0 -1.774156,1.05328 -1.774156,1.05328 v 0 c 1.182299,1.5187 2.36134,3.03991 3.539876,4.56153 1.415773,1.73308 2.817477,3.55059 4.612651,4.92092 1.139984,0.87019 2.486977,1.45856 3.842911,1.89069 0.163373,0.0493 1.68469,0.56295 1.981028,0.46628 2.736827,-0.89272 2.810198,-1.2506 3.460422,-3.47159 0.587764,-1.90349 1.098646,-3.81975 1.24994,-5.81577 0.313711,-2.05237 0.749974,-4.08849 0.859028,-6.16716 0.101668,-1.96697 0.09839,-3.93306 0.09329,-5.90236 0.0096,-1.68039 0.01095,-3.36305 0.135212,-5.0398 0.156271,-1.68618 0.456851,-3.34495 0.918808,-4.97619 0.577554,-2.09859 1.184916,-4.19087 2.309403,-6.07821 1.33333,-2.36454 2.804874,-4.64846 4.131373,-7.017438 0.630888,-1.062273 1.264663,-2.122876 1.917078,-3.172145 0.160933,-0.258823 0.318617,-0.519877 0.489006,-0.772575 0.107691,-0.159716 0.53295,-0.504569 0.344678,-0.463841 -0.68511,0.148198 -1.293974,0.539427 -1.940962,0.80914 -0.462928,1.745536 -1.161172,3.428053 -1.641745,5.169519 -0.885264,2.86216 -1.549945,5.78315 -2.403742,8.65437 -0.869762,2.63454 -1.900849,5.21891 -3.761272,7.33053 -0.31306,0.35283 -0.611904,0.71881 -0.939178,1.05851 -0.317283,0.32932 -0.817412,0.52447 -0.992815,0.94679 -0.0923,0.22223 0.864238,-0.38034 0.689039,-0.21538 -0.791149,0.74492 -2.733998,1.28902 -3.752866,1.65706 -0.622665,0.14539 -2.193526,0.65436 -2.770098,0.0273 -0.18802,-0.2045 -0.209581,-0.47883 -0.268353,-0.73271 -0.162573,-1.54287 0.04645,-3.09303 0.24869,-4.6236 0.305207,-1.80645 0.711639,-3.59537 0.911047,-5.41928 0.240811,-1.97154 0.578062,-3.93948 0.582396,-5.93133 -0.0213,-1.75964 -0.17013,-3.55334 -0.911926,-5.174497 -0.126588,-0.183044 -0.2236,-0.39057 -0.379762,-0.549132 -0.97346,-0.988407 -2.546485,-0.459439 -3.657129,-0.09762 -2.667159,0.933527 -5.246362,2.080639 -7.634229,3.607829 0,0 2.088205,-0.81706 2.088205,-0.81706 z"
       id="path1358"
       style="fill:#24221c;fill-opacity:1;stroke:#ac9d93;stroke-width:0.264999;stroke-miterlimit:4;stroke-dasharray:none;stroke-opacity:1" />
    <path
       inkscape:connector-curvature="0"
       d="m 63.920636,138.17579 c 0.07429,-3.5476 1.052473,-6.97516 1.989014,-10.36983 0.682894,-2.29167 1.438865,-4.56659 2.373323,-6.76956 0.332692,-0.78432 0.981014,-2.21252 1.474856,-2.97361 0.194003,-0.29899 0.447606,-0.55479 0.671409,-0.83218 -0.40463,0.26406 -0.938432,0.39523 -1.21389,0.79219 -0.110053,0.1586 0.399378,0.043 0.558914,0.1517 0.242115,0.16496 0.433168,0.40077 0.602681,0.63972 0.914218,1.28869 1.333852,2.86642 1.809388,4.34565 0.910931,3.03391 1.704157,6.1085 2.187768,9.24095 0.16165,1.32465 0.344882,2.65744 0.15177,3.98567 0,0 1.973062,-0.97499 1.973062,-0.97499 v 0 c 0.136919,-1.34067 -0.06933,-2.67229 -0.257112,-4.00057 -0.53394,-3.12636 -1.409017,-6.17788 -2.281097,-9.22412 -0.443532,-1.45249 -1.11555,-4.22818 -2.370791,-5.23769 -0.189532,-0.15243 -0.440066,-0.37396 -0.668888,-0.29153 -0.88823,0.32 -1.635247,0.94413 -2.45287,1.41619 -0.201811,0.28042 -0.429276,0.54406 -0.605435,0.84126 -0.447477,0.75496 -1.073963,2.19792 -1.381112,2.95667 -0.891564,2.20243 -1.612755,4.4698 -2.281918,6.74794 -0.971714,3.47586 -2.001797,6.96161 -2.28465,10.57803 0,0 2.005578,-1.02189 2.005578,-1.02189 z"
       id="path1360"
       style="fill:#24221c;fill-opacity:1;stroke:#ac9d93;stroke-width:0.264999;stroke-miterlimit:4;stroke-dasharray:none;stroke-opacity:1" />
    <path
       inkscape:connector-curvature="0"
       d="m 96.516583,95.325815 c 0.127302,3.531521 0.134826,7.066645 0.156776,10.600075 -0.05659,4.88646 -0.252486,9.76959 -0.338479,14.6555 -0.05149,3.12138 -0.0767,6.26075 -0.505407,9.35794 -0.211029,1.50404 -0.734086,2.93727 -1.130855,4.39825 0,0 1.935263,-0.9216 1.935263,-0.9216 v 0 c 0.406461,-1.4642 0.952672,-2.90194 1.111356,-4.42233 0.361103,-3.08761 0.279148,-6.20771 0.359693,-9.31053 0.07198,-4.87331 0.175659,-9.74599 0.259905,-14.61908 0.02215,-3.5867 0.03097,-7.174971 0.156776,-10.759837 0,0 -2.005028,1.021612 -2.005028,1.021612 z"
       id="path1362"
       style="fill:#24221c;fill-opacity:1;stroke:#ac9d93;stroke-width:0.264999;stroke-miterlimit:4;stroke-dasharray:none;stroke-opacity:1" />
    <path
       inkscape:connector-curvature="0"
       d="m 98.181288,95.948811 c 1.496624,0.154887 3.003412,0.181287 4.506722,0.20393 2.32943,0.01609 4.65887,0.0314 6.98836,0.03204 1.79174,-0.04679 3.58084,-0.157861 5.37106,-0.241088 0.995,-0.0019 1.98093,-0.101915 2.97028,-0.193101 0,0 1.76558,-1.305504 1.76558,-1.305504 v 0 c -0.98764,0.07473 -1.97034,0.187653 -2.9622,0.195384 -1.80776,0.109585 -3.61405,0.255397 -5.42531,0.295251 -2.32483,-0.0024 -4.64993,0.01016 -6.97444,-0.03713 -1.4653,-0.03549 -2.93672,-0.05656 -4.39247,-0.241893 0,0 -1.847582,1.292114 -1.847582,1.292114 z"
       id="path1364"
       style="fill:#24221c;fill-opacity:1;stroke:#ac9d93;stroke-width:0.264999;stroke-miterlimit:4;stroke-dasharray:none;stroke-opacity:1" />
    <path
       inkscape:connector-curvature="0"
       d="m 139.65809,99.045738 c 0.21735,4.522832 0.1744,9.048582 -0.0163,13.570692 -0.4028,5.56784 -0.82722,11.15468 -1.72731,16.66868 -0.10457,0.38241 -0.20915,0.76483 -0.31372,1.14724 0,0 1.90917,-0.91556 1.90917,-0.91556 v 0 c 0.0824,-0.37914 0.16481,-0.75827 0.24721,-1.1374 0.69487,-5.49979 1.03176,-11.04251 1.47918,-16.56572 0.0649,-1.18846 0.14578,-2.37616 0.19467,-3.56539 0.14009,-3.4072 0.0715,-6.81969 0.23577,-10.226019 0,0 -2.00869,1.023477 -2.00869,1.023477 z"
       id="path1366"
       style="fill:#24221c;fill-opacity:1;stroke:#ac9d93;stroke-width:0.264999;stroke-miterlimit:4;stroke-dasharray:none;stroke-opacity:1" />
    <path
       inkscape:connector-curvature="0"
       d="m 133.25991,97.272529 c 6.23223,0.920533 12.46151,1.863143 18.70648,2.694096 2.43583,0.371255 4.90378,0.441485 7.34673,0.734635 0,0 1.75117,-1.241582 1.75117,-1.241582 v 0 c -2.50057,-0.28176 -5.03197,-0.250295 -7.52831,-0.604345 -6.20251,-0.70158 -12.40293,-1.51225 -18.51521,-2.797379 0,0 -1.76086,1.214575 -1.76086,1.214575 z"
       id="path1368"
       style="fill:#24221c;fill-opacity:1;stroke:#ac9d93;stroke-width:0.264999;stroke-miterlimit:4;stroke-dasharray:none;stroke-opacity:1" />
    <path
       inkscape:connector-curvature="0"
       d="m 168.79636,104.38855 c 0.49398,0.69238 0.77325,1.48738 0.94649,2.31178 0.28545,2.31679 0.27145,4.66176 0.28365,6.99286 0.066,1.42052 -0.17395,2.9642 0.34295,4.33214 0.27587,0.73005 0.51198,0.93385 0.98453,1.5261 0.54037,0.46712 0.69714,0.68234 1.382,0.94799 1.67844,0.65104 3.6067,0.10809 5.28005,-0.25843 2.23291,-0.64924 4.53923,-1.54434 6.23206,-3.20167 0.57573,-0.56366 0.69166,-0.82474 1.11967,-1.49076 0.83755,-1.50639 1.13012,-3.2335 1.44553,-4.90905 0.20623,-1.268 0.74526,-2.43956 1.16404,-3.64464 0.15002,-0.46485 0.24809,-0.80018 0.43699,-1.25426 0.063,-0.15129 0.36183,-0.50986 0.21198,-0.44353 -2.42477,1.07325 -2.03042,0.96083 -2.6208,2.76574 -0.64167,1.66698 -1.17926,3.36783 -1.69012,5.07818 -0.43008,1.55382 -1.12685,3.00949 -1.55737,4.56235 -0.5363,2.00718 -0.9822,4.03888 -1.39767,6.07423 -0.42696,2.0652 -0.72109,4.15103 -1.20227,6.2047 -0.22397,1.10152 -0.49281,2.18285 -0.90916,3.22733 -0.68935,1.40548 -1.48421,2.74957 -2.39533,4.02148 -0.5876,0.72101 -1.26188,1.38798 -2.01961,1.93165 -0.18502,0.13275 -0.77229,0.48171 -0.57153,0.37424 0.44412,-0.23774 0.86859,-0.51049 1.30288,-0.76574 -0.9611,0.47529 -1.99861,0.93649 -3.09251,0.95509 -0.26909,0.005 -0.53732,-0.0318 -0.80598,-0.0478 -2.02256,-0.38277 -3.79321,-1.45231 -5.39261,-2.70417 -1.23134,-1.00401 -1.97399,-2.36384 -2.45839,-3.85017 -0.0604,-0.20246 -0.12086,-0.40492 -0.18129,-0.60738 0,0 -1.92374,1.05217 -1.92374,1.05217 v 0 c 0.062,0.20412 0.12404,0.40824 0.18605,0.61235 0.52038,1.51701 1.30109,2.90472 2.55689,3.93988 1.62877,1.2615 3.42382,2.3386 5.44856,2.81716 0.27135,0.0288 0.54129,0.0786 0.81405,0.0865 1.10742,0.0322 2.16365,-0.41981 3.14552,-0.87627 1.86483,-1.07877 3.69795,-2.01026 4.98459,-3.78311 0.90267,-1.29604 1.70688,-2.65816 2.39738,-4.0795 0.41214,-1.05037 0.67146,-2.13507 0.8686,-3.24591 0.43808,-2.05123 0.71166,-4.12969 1.1463,-6.18175 0.42472,-2.04313 0.90741,-4.07479 1.46101,-6.08705 0.44978,-1.54204 1.12996,-3.0022 1.54835,-4.5553 0.50469,-1.70977 1.05882,-3.40296 1.69244,-5.07 0.0979,-0.27814 0.19397,-0.55696 0.29383,-0.83442 0.079,-0.21961 0.47584,-0.64362 0.24281,-0.65675 -2.09043,-0.11782 -2.03192,0.88893 -2.50299,2.26701 -0.43363,1.20624 -0.9558,2.39065 -1.13739,3.67028 -0.29484,1.65591 -0.60603,3.34955 -1.46305,4.82108 -0.43197,0.63572 -0.55515,0.89283 -1.12759,1.42442 -0.25094,0.23303 -0.88836,0.30986 -0.80255,0.64139 0.0807,0.31167 1.16888,-0.50141 0.84972,-0.4591 -0.93395,0.1238 -1.65724,1.02734 -2.65428,0.97115 -1.61447,0.36905 -3.47738,0.90979 -5.11234,0.32139 -0.65888,-0.23713 -0.81193,-0.43767 -1.33872,-0.87069 -0.47094,-0.57222 -0.67435,-0.72649 -0.9448,-1.44092 -0.50826,-1.34261 -0.29425,-2.85934 -0.38028,-4.25503 -0.0173,-2.36072 0.0316,-4.73183 -0.19993,-7.08362 -0.16999,-0.8627 -0.46933,-1.68043 -0.94791,-2.4242 0,0 -1.93871,1.15053 -1.93871,1.15053 z"
       id="path1370"
       style="fill:#24221c;fill-opacity:1;stroke:#ac9d93;stroke-width:0.264999;stroke-miterlimit:4;stroke-dasharray:none;stroke-opacity:1" />
  </g>
</svg>
